<svg width="40" height="40" viewBox="0 0 40 40" fill="none" xmlns="http://www.w3.org/2000/svg">
<path d="M38.6654 20C38.6654 30.3094 30.308 38.6667 19.9987 38.6667C9.68938 38.6667 1.33203 30.3094 1.33203 20C1.33203 9.69072 9.68938 1.33337 19.9987 1.33337C30.308 1.33337 38.6654 9.69072 38.6654 20Z" fill="#313131"/>
<path fill-rule="evenodd" clip-rule="evenodd" d="M40 20C40 31.0457 31.0457 40 20 40C8.95431 40 0 31.0457 0 20C0 8.95431 8.95431 0 20 0C31.0457 0 40 8.95431 40 20ZM20 38.6667C30.3093 38.6667 38.6667 30.3093 38.6667 20C38.6667 9.69069 30.3093 1.33333 20 1.33333C9.69069 1.33333 1.33333 9.69069 1.33333 20C1.33333 30.3093 9.69069 38.6667 20 38.6667Z" fill="url(#paint0_linear_4111_3124)"/>
<path fill-rule="evenodd" clip-rule="evenodd" d="M13.5217 25.2431C13.5594 25.2679 13.5968 25.2919 13.6339 25.3152C13.7083 25.3621 13.7816 25.406 13.8545 25.4471C13.7453 25.3855 13.6352 25.3176 13.5217 25.2431L13.5217 25.2431ZM23.5653 18.9846C24.8035 19.1227 25.7993 19.5256 26.5297 20.1842C27.4005 20.9677 27.8661 22.0828 27.8661 23.4085C27.8661 24.6565 27.5077 25.7107 26.8408 26.4684C26.1043 27.3072 25.0098 27.7832 23.5719 27.8719L23.4467 27.8796V29.213C23.4467 30.0015 23.1773 30.6636 22.7232 31.1279C22.2692 31.592 21.6229 31.8666 20.8533 31.8666H19.5362C18.0566 31.8666 16.9428 30.7311 16.9428 29.213V27.8876L16.8103 27.8867C15.6674 27.8792 14.8704 27.7881 14.2262 27.6131C13.6276 27.4506 13.1552 27.214 12.6553 26.8962L13.5637 25.4286C13.9821 25.6918 14.3707 25.8674 14.8442 25.9788C15.3574 26.0994 15.9646 26.1433 16.8087 26.1483L16.9428 26.1491V20.6651L16.8162 20.6588C15.3428 20.5848 14.1869 20.1273 13.372 19.3141C12.5761 18.5204 12.1427 17.4125 12.1331 16.1038C12.1189 14.7822 12.5612 13.6773 13.398 12.8995C14.2122 12.1402 15.3586 11.7264 16.8144 11.6721L16.9428 11.6673V8.1333H18.52V11.6761L21.8695 11.7033V8.16338H23.4467V11.7189L23.5766 11.7222C25.2541 11.7654 26.2367 12.0117 27.351 12.6417L26.5142 14.1529C25.6521 13.6692 24.9338 13.4946 23.5834 13.4607L23.4467 13.4572V18.9714L23.5653 18.9846ZM18.52 26.1533H21.8695V20.6737H18.52V26.1533ZM21.8695 18.9303V13.4416L18.52 13.4144V18.9303H21.8695ZM14.5286 14.1879C14.0453 14.636 13.8126 15.2826 13.8177 16.086C13.8252 16.9467 14.0777 17.6297 14.5887 18.112C15.0973 18.5919 15.8439 18.8561 16.8055 18.92L16.9477 18.9294V13.4041L16.8081 13.4106C15.8303 13.4565 15.0385 13.7174 14.5286 14.1879ZM21.8695 27.8917H18.52V29.218C18.52 29.5798 18.6466 29.8425 18.8478 30.0123C19.0452 30.1788 19.2994 30.2436 19.5362 30.2436H20.8533C21.1674 30.2436 21.428 30.1627 21.609 29.9797C21.7898 29.797 21.8695 29.5345 21.8695 29.218V27.8917ZM23.4467 20.7177V26.1394L23.5907 26.1279C24.4868 26.0562 25.1704 25.7884 25.5974 25.3008C25.9918 24.8522 26.1815 24.209 26.1865 23.4085C26.1865 22.6023 25.9319 21.951 25.4249 21.4945C24.9896 21.1058 24.3621 20.8529 23.5996 20.7402L23.4467 20.7177Z" fill="url(#paint1_linear_4111_3124)"/>
<defs>
<linearGradient id="paint0_linear_4111_3124" x1="0.491228" y1="64.5833" x2="60.4864" y2="47.8656" gradientUnits="userSpaceOnUse">
<stop stop-color="#D8ADFB"/>
<stop offset="0.292266" stop-color="#B8D3F6"/>
<stop offset="0.600346" stop-color="#A7F5D5"/>
<stop offset="0.747126" stop-color="#F3EFC0"/>
<stop offset="0.972274" stop-color="#F3B6F4"/>
</linearGradient>
<linearGradient id="paint1_linear_4111_3124" x1="12.326" y1="46.4527" x2="36.9173" y2="41.9101" gradientUnits="userSpaceOnUse">
<stop stop-color="#D8ADFB"/>
<stop offset="0.292266" stop-color="#B8D3F6"/>
<stop offset="0.600346" stop-color="#A7F5D5"/>
<stop offset="0.747126" stop-color="#F3EFC0"/>
<stop offset="0.972274" stop-color="#F3B6F4"/>
</linearGradient>
</defs>
</svg>
