<svg width="28" height="28" viewBox="0 0 28 28" fill="none" xmlns="http://www.w3.org/2000/svg">
<path d="M14 28C21.732 28 28 21.732 28 14C28 6.26801 21.732 0 14 0C6.26801 0 0 6.26801 0 14C0 21.732 6.26801 28 14 28Z" fill="#E84142"/>
<path d="M18.0112 14.0553C18.4049 13.3745 19.0401 13.3745 19.4337 14.0553L21.8851 18.3639C22.2788 19.0446 21.9567 19.6 21.1694 19.6H16.2308C15.4525 19.6 15.1304 19.0446 15.5151 18.3639L18.0112 14.0553ZM13.2695 5.76058C13.6632 5.07981 14.2894 5.07981 14.6831 5.76058L15.2288 6.74591L16.5171 9.01217C16.8303 9.65712 16.8303 10.4185 16.5171 11.0635L12.1959 18.5609C11.8023 19.17 11.1491 19.5552 10.4245 19.6H6.83686C6.04956 19.6 5.72748 19.0536 6.12113 18.3639L13.2695 5.76058Z" fill="white"/>
</svg>
