<svg width="28" height="28" viewBox="0 0 28 28" fill="none" xmlns="http://www.w3.org/2000/svg">
<path d="M14 28C21.732 28 28 21.732 28 14C28 6.26801 21.732 0 14 0C6.26801 0 0 6.26801 0 14C0 21.732 6.26801 28 14 28Z" fill="#F3BA2F"/>
<path fill-rule="evenodd" clip-rule="evenodd" d="M13.9998 9.20526L10.6013 12.6037L8.62394 10.6262L13.9998 5.25L19.3776 10.6279L17.4001 12.6054L13.9998 9.20526ZM7.22756 12.0222L5.25 13.9997L7.22744 15.9771L9.20498 13.9996L7.22756 12.0222ZM13.9998 18.7947L10.6013 15.3963L8.62096 17.3712L8.62376 17.374L13.9998 22.75L19.3776 17.3722L19.3785 17.3711L17.4 15.3947L13.9998 18.7947ZM20.7726 12.0233L18.795 14.0008L20.7725 15.9783L22.75 14.0007L20.7726 12.0233ZM16.0065 13.999H16.0056L16.0074 13.9999L16.0065 14.001L13.9998 16.0077L11.995 14.0028L11.9922 13.9999L11.995 13.9972L12.3464 13.6457L12.5168 13.4753H12.5169L13.9998 11.9923L16.0065 13.999Z" fill="white"/>
</svg>
