<svg width="28" height="28" viewBox="0 0 28 28" fill="none" xmlns="http://www.w3.org/2000/svg">
<circle cx="14" cy="14" r="14" fill="#8347E5"/>
<path opacity="0.9" d="M18.1512 11.2796C17.9972 11.1924 17.8226 11.1465 17.6448 11.1465C17.4671 11.1465 17.2925 11.1924 17.1385 11.2796L14.7866 12.7226L13.1532 13.6044L10.8013 14.9671C10.6443 15.0542 10.4671 15.1 10.2868 15.1C10.1065 15.1 9.92926 15.0542 9.77231 14.9671L7.97567 13.8288C7.82013 13.7407 7.69034 13.6148 7.59879 13.4632C7.50725 13.3115 7.45704 13.1393 7.45301 12.9631V10.8628C7.44947 10.6872 7.49668 10.5141 7.58918 10.3637C7.68168 10.2134 7.81568 10.0918 7.97567 10.0131L9.80497 8.97095C9.96192 8.88384 10.1392 8.83806 10.3195 8.83806C10.4998 8.83806 10.677 8.88384 10.834 8.97095L12.6796 10.0131C12.8298 10.1017 12.9549 10.226 13.0433 10.3744C13.1318 10.5229 13.1808 10.6908 13.1859 10.8628V12.2256L14.8192 11.3117V9.94893C14.822 9.77133 14.7747 9.59642 14.6824 9.44361C14.5902 9.2908 14.4566 9.16605 14.2966 9.08317L10.834 7.14323C10.6793 7.04959 10.5012 7 10.3195 7C10.1378 7 9.95962 7.04959 9.80497 7.14323L6.34237 9.08317C6.18654 9.16955 6.05729 9.29552 5.9682 9.44786C5.8791 9.60021 5.83345 9.77329 5.83604 9.94893V13.8769C5.83345 14.0526 5.8791 14.2256 5.9682 14.378C6.05729 14.5303 6.18654 14.6563 6.34237 14.7427L9.80497 16.6986C9.96192 16.7858 10.1392 16.8315 10.3195 16.8315C10.4998 16.8315 10.677 16.7858 10.834 16.6986L13.1859 15.3679L14.8192 14.4381L17.1712 13.1073C17.3251 13.0201 17.4997 12.9742 17.6775 12.9742C17.8553 12.9742 18.0299 13.0201 18.1838 13.1073L20.0295 14.1495C20.1796 14.2381 20.3047 14.3624 20.3932 14.5108C20.4817 14.6593 20.5307 14.8272 20.5358 14.9992V17.0995C20.5402 17.2754 20.4953 17.4492 20.406 17.6019C20.3167 17.7545 20.1865 17.8802 20.0295 17.9652L18.1838 19.0234C18.0299 19.1106 17.8553 19.1565 17.6775 19.1565C17.4997 19.1565 17.3251 19.1106 17.1712 19.0234L15.3255 17.9973C15.1741 17.9061 15.0484 17.779 14.9599 17.6278C14.8714 17.4765 14.8231 17.3059 14.8192 17.1315V15.7688L13.1859 16.6986V18.0454C13.1815 18.2213 13.2264 18.3951 13.3157 18.5478C13.405 18.7004 13.5352 18.8261 13.6922 18.9111L17.1548 20.8671C17.3118 20.9542 17.489 21 17.6693 21C17.8496 21 18.0269 20.9542 18.1838 20.8671L21.6464 18.9111C21.803 18.8243 21.9337 18.6986 22.0254 18.5467C22.1171 18.3948 22.1667 18.2219 22.1691 18.0454V14.1174C22.1726 13.9418 22.1254 13.7687 22.0329 13.6184C21.9404 13.468 21.8064 13.3464 21.6464 13.2677L18.1512 11.2796Z" fill="white"/>
</svg>
