<svg width="16" height="16" viewBox="0 0 16 16" fill="none" xmlns="http://www.w3.org/2000/svg">
<mask id="path-1-inside-1_4296_5990" fill="white">
<path d="M13.6901 13.6854C13.2748 14.102 12.7812 14.4327 12.2378 14.6583C11.6943 14.8839 11.1116 15 10.5232 15C9.93471 15 9.35204 14.8839 8.80858 14.6583C8.26511 14.4327 7.77155 14.102 7.3562 13.6853L6.25629 12.5859C6.13055 12.4602 6.05991 12.2897 6.05991 12.1119C6.05991 11.9342 6.13055 11.7637 6.25629 11.638C6.38203 11.5123 6.55257 11.4417 6.73039 11.4417C6.90821 11.4417 7.07875 11.5123 7.20449 11.638L8.30439 12.7375C8.89285 13.3257 9.69097 13.6562 10.5232 13.6562C11.3554 13.6562 12.1535 13.3257 12.7419 12.7375C13.3304 12.1493 13.661 11.3515 13.661 10.5196C13.661 9.68769 13.3304 8.88987 12.7419 8.30164L11.642 7.20215C11.5163 7.07645 11.4457 6.90598 11.4457 6.72823C11.4457 6.55047 11.5163 6.38 11.642 6.25431C11.7678 6.12862 11.9383 6.058 12.1161 6.058C12.294 6.05801 12.4645 6.12862 12.5902 6.25431L13.6901 7.3538C14.5289 8.19402 15 9.33256 15 10.5196C15 11.7066 14.5289 12.8451 13.6901 13.6854ZM4.3599 8.79451L3.26 7.69502C2.67154 7.10679 2.34095 6.30897 2.34095 5.47708C2.34095 4.64519 2.67154 3.84738 3.26 3.25914C3.84845 2.67091 4.64657 2.34044 5.47877 2.34044C6.31097 2.34044 7.10909 2.67091 7.69755 3.25914L8.79745 4.35863C8.92319 4.48433 9.09373 4.55494 9.27155 4.55494C9.44937 4.55494 9.61991 4.48433 9.74565 4.35863C9.87139 4.23294 9.94203 4.06247 9.94203 3.88472C9.94203 3.70696 9.87139 3.53649 9.74565 3.4108L8.64574 2.31131C7.80581 1.47169 6.66662 1 5.47877 1C4.29093 1 3.15173 1.47169 2.3118 2.31131C1.47187 3.15092 1 4.28969 1 5.47708C1 6.66448 1.47187 7.80324 2.3118 8.64286L3.41171 9.74235C3.53745 9.86804 3.70798 9.93865 3.88581 9.93865C4.06363 9.93865 4.23416 9.86804 4.3599 9.74235C4.48564 9.61666 4.55628 9.44618 4.55628 9.26843C4.55628 9.09068 4.48564 8.9202 4.3599 8.79451ZM5.10186 5.10032C4.97613 5.22601 4.90549 5.39648 4.90549 5.57424C4.90549 5.75199 4.97613 5.92246 5.10186 6.04815L9.95188 10.8963C10.0776 11.022 10.2482 11.0926 10.426 11.0926C10.6038 11.0926 10.7743 11.022 10.9001 10.8963C11.0258 10.7706 11.0965 10.6002 11.0965 10.4224C11.0965 10.2447 11.0258 10.0742 10.9001 9.9485L6.05006 5.10032C5.92432 4.97463 5.75378 4.90401 5.57596 4.90401C5.39814 4.90401 5.2276 4.97463 5.10186 5.10032Z"/>
</mask>
<path d="M13.6901 13.6854C13.2748 14.102 12.7812 14.4327 12.2378 14.6583C11.6943 14.8839 11.1116 15 10.5232 15C9.93471 15 9.35204 14.8839 8.80858 14.6583C8.26511 14.4327 7.77155 14.102 7.3562 13.6853L6.25629 12.5859C6.13055 12.4602 6.05991 12.2897 6.05991 12.1119C6.05991 11.9342 6.13055 11.7637 6.25629 11.638C6.38203 11.5123 6.55257 11.4417 6.73039 11.4417C6.90821 11.4417 7.07875 11.5123 7.20449 11.638L8.30439 12.7375C8.89285 13.3257 9.69097 13.6562 10.5232 13.6562C11.3554 13.6562 12.1535 13.3257 12.7419 12.7375C13.3304 12.1493 13.661 11.3515 13.661 10.5196C13.661 9.68769 13.3304 8.88987 12.7419 8.30164L11.642 7.20215C11.5163 7.07645 11.4457 6.90598 11.4457 6.72823C11.4457 6.55047 11.5163 6.38 11.642 6.25431C11.7678 6.12862 11.9383 6.058 12.1161 6.058C12.294 6.05801 12.4645 6.12862 12.5902 6.25431L13.6901 7.3538C14.5289 8.19402 15 9.33256 15 10.5196C15 11.7066 14.5289 12.8451 13.6901 13.6854ZM4.3599 8.79451L3.26 7.69502C2.67154 7.10679 2.34095 6.30897 2.34095 5.47708C2.34095 4.64519 2.67154 3.84738 3.26 3.25914C3.84845 2.67091 4.64657 2.34044 5.47877 2.34044C6.31097 2.34044 7.10909 2.67091 7.69755 3.25914L8.79745 4.35863C8.92319 4.48433 9.09373 4.55494 9.27155 4.55494C9.44937 4.55494 9.61991 4.48433 9.74565 4.35863C9.87139 4.23294 9.94203 4.06247 9.94203 3.88472C9.94203 3.70696 9.87139 3.53649 9.74565 3.4108L8.64574 2.31131C7.80581 1.47169 6.66662 1 5.47877 1C4.29093 1 3.15173 1.47169 2.3118 2.31131C1.47187 3.15092 1 4.28969 1 5.47708C1 6.66448 1.47187 7.80324 2.3118 8.64286L3.41171 9.74235C3.53745 9.86804 3.70798 9.93865 3.88581 9.93865C4.06363 9.93865 4.23416 9.86804 4.3599 9.74235C4.48564 9.61666 4.55628 9.44618 4.55628 9.26843C4.55628 9.09068 4.48564 8.9202 4.3599 8.79451ZM5.10186 5.10032C4.97613 5.22601 4.90549 5.39648 4.90549 5.57424C4.90549 5.75199 4.97613 5.92246 5.10186 6.04815L9.95188 10.8963C10.0776 11.022 10.2482 11.0926 10.426 11.0926C10.6038 11.0926 10.7743 11.022 10.9001 10.8963C11.0258 10.7706 11.0965 10.6002 11.0965 10.4224C11.0965 10.2447 11.0258 10.0742 10.9001 9.9485L6.05006 5.10032C5.92432 4.97463 5.75378 4.90401 5.57596 4.90401C5.39814 4.90401 5.2276 4.97463 5.10186 5.10032Z" fill="#65EDB5"/>
<path d="M13.6901 13.6854L12.9824 12.9789L12.9819 12.9794L13.6901 13.6854ZM7.3562 13.6853L8.06444 12.9794L8.06317 12.9781L7.3562 13.6853ZM6.25629 12.5859L5.54932 13.2931H5.54932L6.25629 12.5859ZM8.30439 12.7375L7.59742 13.4448L8.30439 12.7375ZM12.7419 8.30164L12.035 9.00888L12.7419 8.30164ZM11.642 7.20215L12.349 6.49491L11.642 7.20215ZM12.5902 6.25431L13.2972 5.54707L12.5902 6.25431ZM13.6901 7.3538L14.3979 6.6473L14.3971 6.64656L13.6901 7.3538ZM4.3599 8.79451L3.65293 9.50175L4.3599 8.79451ZM3.26 7.69502L3.96697 6.98778L3.26 7.69502ZM7.69755 3.25914L8.40452 2.5519V2.5519L7.69755 3.25914ZM8.79745 4.35863L8.09048 5.06588H8.09048L8.79745 4.35863ZM9.74565 3.4108L9.03867 4.11804L9.74565 3.4108ZM8.64574 2.31131L9.35272 1.60407V1.60407L8.64574 2.31131ZM2.3118 8.64286L3.01878 7.93562L2.3118 8.64286ZM3.41171 9.74235L2.70473 10.4496H2.70473L3.41171 9.74235ZM5.10186 6.04815L5.80884 5.34091L5.10186 6.04815ZM9.95188 10.8963L9.24491 11.6036L9.95188 10.8963ZM10.9001 9.9485L10.1931 10.6557L10.9001 9.9485ZM12.9819 12.9794C12.6595 13.3029 12.2763 13.5595 11.8544 13.7347L12.6212 15.5819C13.2861 15.3058 13.8901 14.9012 14.3984 14.3913L12.9819 12.9794ZM11.8544 13.7347C11.4324 13.9098 10.9801 14 10.5232 14V16C11.2432 16 11.9562 15.8579 12.6212 15.5819L11.8544 13.7347ZM10.5232 14C10.0663 14 9.6139 13.9098 9.19197 13.7347L8.42518 15.5819C9.09018 15.8579 9.80314 16 10.5232 16V14ZM9.19197 13.7347C8.77004 13.5595 8.38688 13.3029 8.06444 12.9794L6.64795 14.3913C7.15623 14.9012 7.76019 15.3058 8.42518 15.5819L9.19197 13.7347ZM8.06317 12.9781L6.96326 11.8786L5.54932 13.2931L6.64922 14.3926L8.06317 12.9781ZM6.96326 11.8786C7.02511 11.9404 7.05991 12.0244 7.05991 12.1119H5.05991C5.05991 12.555 5.236 12.9799 5.54932 13.2931L6.96326 11.8786ZM7.05991 12.1119C7.05991 12.1995 7.0251 12.2834 6.96326 12.3453L5.54932 10.9308C5.236 11.244 5.05991 11.6688 5.05991 12.1119H7.05991ZM6.96326 12.3453C6.90144 12.4071 6.81767 12.4417 6.73039 12.4417V10.4417C6.28747 10.4417 5.86262 10.6176 5.54932 10.9308L6.96326 12.3453ZM6.73039 12.4417C6.64311 12.4417 6.55934 12.4071 6.49751 12.3453L7.91146 10.9308C7.59816 10.6176 7.17331 10.4417 6.73039 10.4417V12.4417ZM6.49751 12.3453L7.59742 13.4448L9.01136 12.0303L7.91146 10.9308L6.49751 12.3453ZM7.59742 13.4448C8.37344 14.2205 9.42587 14.6562 10.5232 14.6562V12.6562C9.95606 12.6562 9.41226 12.431 9.01136 12.0303L7.59742 13.4448ZM10.5232 14.6562C11.6205 14.6562 12.6729 14.2205 13.4489 13.4448L12.035 12.0303C11.6341 12.431 11.0903 12.6562 10.5232 12.6562V14.6562ZM13.4489 13.4448C14.225 12.669 14.661 11.6168 14.661 10.5196H12.661C12.661 11.0861 12.4358 11.6295 12.035 12.0303L13.4489 13.4448ZM14.661 10.5196C14.661 9.42235 14.225 8.37014 13.4489 7.5944L12.035 9.00888C12.4358 9.4096 12.661 9.95302 12.661 10.5196H14.661ZM13.4489 7.5944L12.349 6.49491L10.9351 7.90939L12.035 9.00888L13.4489 7.5944ZM12.349 6.49491C12.4108 6.55672 12.4457 6.64064 12.4457 6.72823H10.4457C10.4457 7.17132 10.6218 7.59619 10.9351 7.90939L12.349 6.49491ZM12.4457 6.72823C12.4457 6.81582 12.4108 6.89974 12.349 6.96155L10.9351 5.54707C10.6218 5.86026 10.4457 6.28513 10.4457 6.72823H12.4457ZM12.349 6.96155C12.2872 7.02335 12.2034 7.05801 12.1161 7.058V5.058C11.6732 5.058 11.2484 5.23388 10.9351 5.54707L12.349 6.96155ZM12.1161 7.058C12.0289 7.058 11.9451 7.02335 11.8833 6.96155L13.2972 5.54707C12.9839 5.23388 12.559 5.05801 12.1161 5.058V7.058ZM11.8833 6.96155L12.9832 8.06104L14.3971 6.64656L13.2972 5.54707L11.8833 6.96155ZM12.9824 8.0603C13.6341 8.71308 14 9.59754 14 10.5196H16C16 9.06758 15.4238 7.67497 14.3979 6.6473L12.9824 8.0603ZM14 10.5196C14 11.4416 13.6341 12.3261 12.9824 12.9789L14.3979 14.3919C15.4238 13.3642 16 11.9716 16 10.5196H14ZM5.06688 8.08727L3.96697 6.98778L2.55302 8.40226L3.65293 9.50175L5.06688 8.08727ZM3.96697 6.98778C3.56609 6.58705 3.34095 6.04363 3.34095 5.47708H1.34095C1.34095 6.57431 1.77699 7.62652 2.55302 8.40226L3.96697 6.98778ZM3.34095 5.47708C3.34095 4.91053 3.56609 4.36711 3.96697 3.96638L2.55302 2.5519C1.77699 3.32765 1.34095 4.37986 1.34095 5.47708H3.34095ZM3.96697 3.96638C4.36786 3.56564 4.91166 3.34044 5.47877 3.34044L5.47877 1.34044C4.38147 1.34044 3.32904 1.77618 2.55302 2.5519L3.96697 3.96638ZM5.47877 3.34044C6.04588 3.34044 6.58968 3.56565 6.99057 3.96638L8.40452 2.5519C7.6285 1.77618 6.57607 1.34044 5.47877 1.34044L5.47877 3.34044ZM6.99057 3.96638L8.09048 5.06588L9.50443 3.65139L8.40452 2.5519L6.99057 3.96638ZM8.09048 5.06588C8.40378 5.37906 8.82863 5.55494 9.27155 5.55494L9.27155 3.55494C9.35883 3.55494 9.4426 3.58959 9.50443 3.65139L8.09048 5.06588ZM9.27155 5.55494C9.71447 5.55494 10.1393 5.37906 10.4526 5.06588L9.03867 3.65139C9.1005 3.58959 9.18428 3.55494 9.27155 3.55494L9.27155 5.55494ZM10.4526 5.06588C10.7659 4.75268 10.942 4.32781 10.942 3.88472H8.94203C8.94203 3.79713 8.97684 3.71321 9.03867 3.65139L10.4526 5.06588ZM10.942 3.88472C10.942 3.44162 10.7659 3.01676 10.4526 2.70356L9.03867 4.11804C8.97683 4.05622 8.94203 3.9723 8.94203 3.88472H10.942ZM10.4526 2.70356L9.35272 1.60407L7.93877 3.01855L9.03867 4.11804L10.4526 2.70356ZM9.35272 1.60407C8.32522 0.576957 6.93171 5.96046e-08 5.47877 0V2C6.40152 2 7.2864 2.36643 7.93877 3.01855L9.35272 1.60407ZM5.47877 0C4.02583 -1.19209e-07 2.63233 0.576956 1.60483 1.60407L3.01877 3.01855C3.67114 2.36643 4.55602 2 5.47877 2V0ZM1.60483 1.60407C0.577317 2.63119 -1.19209e-07 4.02435 0 5.47708H2C2 4.55502 2.36642 3.67066 3.01877 3.01855L1.60483 1.60407ZM0 5.47708C5.96046e-08 6.92982 0.577318 8.32297 1.60483 9.3501L3.01878 7.93562C2.36642 7.28351 2 6.39914 2 5.47708H0ZM1.60483 9.3501L2.70473 10.4496L4.11868 9.03511L3.01878 7.93562L1.60483 9.3501ZM2.70473 10.4496C3.01804 10.7628 3.44289 10.9387 3.88581 10.9387V8.93865C3.97308 8.93865 4.05685 8.9733 4.11868 9.03511L2.70473 10.4496ZM3.88581 10.9387C4.32872 10.9387 4.75357 10.7628 5.06688 10.4496L3.65293 9.03511C3.71476 8.9733 3.79853 8.93865 3.88581 8.93865V10.9387ZM5.06688 10.4496C5.38019 10.1364 5.55628 9.71152 5.55628 9.26843H3.55628C3.55628 9.18084 3.59109 9.09692 3.65293 9.03511L5.06688 10.4496ZM5.55628 9.26843C5.55628 8.82533 5.38019 8.40047 5.06688 8.08727L3.65293 9.50175C3.59109 9.43994 3.55628 9.35602 3.55628 9.26843H5.55628ZM4.39489 4.39308C4.08158 4.70627 3.90549 5.13114 3.90549 5.57424L5.90549 5.57424C5.90549 5.66182 5.87068 5.74574 5.80884 5.80756L4.39489 4.39308ZM3.90549 5.57424C3.90549 6.01733 4.08158 6.4422 4.39489 6.75539L5.80884 5.34091C5.87068 5.40273 5.90549 5.48665 5.90549 5.57424L3.90549 5.57424ZM4.39489 6.75539L9.24491 11.6036L10.6589 10.1891L5.80884 5.34091L4.39489 6.75539ZM9.24491 11.6036C9.55821 11.9168 9.98306 12.0926 10.426 12.0926V10.0926C10.5133 10.0926 10.597 10.1273 10.6589 10.1891L9.24491 11.6036ZM10.426 12.0926C10.8689 12.0926 11.2937 11.9168 11.607 11.6036L10.1931 10.1891C10.2549 10.1273 10.3387 10.0926 10.426 10.0926V12.0926ZM11.607 11.6036C11.9204 11.2904 12.0965 10.8655 12.0965 10.4224H10.0965C10.0965 10.3348 10.1313 10.2509 10.1931 10.1891L11.607 11.6036ZM12.0965 10.4224C12.0965 9.97933 11.9204 9.55446 11.607 9.24126L10.1931 10.6557C10.1313 10.5939 10.0965 10.51 10.0965 10.4224H12.0965ZM11.607 9.24126L6.75703 4.39308L5.34309 5.80756L10.1931 10.6557L11.607 9.24126ZM6.75703 4.39308C6.44373 4.07989 6.01888 3.90401 5.57596 3.90401L5.57596 5.90401C5.48869 5.90401 5.40491 5.86936 5.34309 5.80756L6.75703 4.39308ZM5.57596 3.90401C5.13305 3.90401 4.7082 4.07989 4.39489 4.39308L5.80884 5.80756C5.74701 5.86936 5.66323 5.90401 5.57596 5.90401L5.57596 3.90401Z" fill="#65EDB5" mask="url(#path-1-inside-1_4296_5990)"/>
</svg>
