<svg width="14" height="14" viewBox="0 0 14 14" fill="none" xmlns="http://www.w3.org/2000/svg">
<path fill-rule="evenodd" clip-rule="evenodd" d="M3.76048 2.1496C4.71976 1.50862 5.84758 1.1665 7.0013 1.1665C7.76735 1.1665 8.52589 1.31739 9.23362 1.61054C9.94136 1.90369 10.5844 2.33337 11.1261 2.87505C11.6678 3.41672 12.0974 4.05978 12.3906 4.76752C12.6838 5.47525 12.8346 6.23379 12.8346 6.99984C12.8346 8.15356 12.4925 9.28137 11.8515 10.2407C11.2106 11.1999 10.2995 11.9476 9.23362 12.3891C8.16772 12.8306 6.99483 12.9462 5.86328 12.7211C4.73172 12.496 3.69232 11.9404 2.87652 11.1246C2.06071 10.3088 1.50514 9.26942 1.28006 8.13786C1.05498 7.00631 1.1705 5.83342 1.61201 4.76752C2.05352 3.70161 2.80119 2.79057 3.76048 2.1496ZM4.40864 10.88C5.17607 11.3928 6.07833 11.6665 7.0013 11.6665C8.23898 11.6665 9.42597 11.1748 10.3011 10.2997C11.1763 9.4245 11.668 8.23751 11.668 6.99984C11.668 6.07686 11.3943 5.1746 10.8815 4.40718C10.3687 3.63975 9.63988 3.04161 8.78716 2.6884C7.93444 2.33519 6.99613 2.24277 6.09088 2.42284C5.18564 2.6029 4.35412 3.04736 3.70147 3.70001C3.04883 4.35265 2.60437 5.18417 2.42431 6.08942C2.24424 6.99466 2.33666 7.93297 2.68987 8.78569C3.04308 9.63841 3.64121 10.3672 4.40864 10.88ZM7.00134 4.49981C7.34652 4.49981 7.62634 4.77963 7.62634 5.12481V6.37481H8.87634C9.22152 6.37481 9.50134 6.65463 9.50134 6.99981C9.50134 7.34499 9.22152 7.62481 8.87634 7.62481H7.62634V8.87481C7.62634 9.21999 7.34652 9.49981 7.00134 9.49981C6.65617 9.49981 6.37634 9.21999 6.37634 8.87481V7.62481H5.12634C4.78116 7.62481 4.50134 7.34499 4.50134 6.99981C4.50134 6.65463 4.78117 6.37481 5.12634 6.37481H6.37634V5.12481C6.37634 4.77963 6.65617 4.49981 7.00134 4.49981Z" fill="white"/>
</svg>
