<svg width="16" height="16" viewBox="0 0 16 16" fill="none" xmlns="http://www.w3.org/2000/svg">
<path fill-rule="evenodd" clip-rule="evenodd" d="M10.3815 3.19997C9.73973 3.19997 9.12397 3.45435 8.66924 3.9073C8.46069 4.11503 8.12329 4.11453 7.91536 3.90619C7.70743 3.69785 7.7076 3.36045 7.91573 3.15232L7.91647 3.15157L7.94683 3.12122C7.95447 3.11357 7.96229 3.10621 7.97028 3.09912C8.61922 2.47992 9.48258 2.1333 10.3815 2.1333C11.3055 2.1333 12.1918 2.49952 12.8464 3.15157L12.8479 3.15305C13.4999 3.80765 13.8662 4.69393 13.8662 5.61797C13.8662 6.54194 13.5 7.42836 12.8479 8.08301L12.8472 8.08376L11.6296 9.30132C11.4213 9.50959 11.0837 9.50959 10.8754 9.30132C10.6671 9.09304 10.6671 8.75535 10.8754 8.54707L12.0922 7.33026C12.5449 6.87553 12.7995 6.25951 12.7995 5.61797C12.7995 4.97656 12.5454 4.36126 12.0929 3.90658C11.6382 3.45404 11.0229 3.19997 10.3815 3.19997ZM5.12363 6.69869C5.33191 6.90697 5.33191 7.24466 5.12363 7.45294L3.90682 8.66974C3.45406 9.12449 3.19948 9.74044 3.19948 10.382C3.19948 11.0235 3.45357 11.6388 3.90608 12.0934C4.3608 12.546 4.97611 12.8 5.61749 12.8C6.25928 12.8 6.87504 12.5456 7.32977 12.0927C7.53831 11.885 7.87571 11.8855 8.08364 12.0938C8.29157 12.3021 8.29141 12.6395 8.08329 12.8477L8.05219 12.8788C8.04453 12.8864 8.0367 12.8938 8.02871 12.9009C7.37977 13.5201 6.51642 13.8667 5.61749 13.8667C4.69349 13.8667 3.80721 13.5005 3.15258 12.8484L3.15109 12.8469C2.49906 12.1924 2.13281 11.3061 2.13281 10.382C2.13281 9.45806 2.49902 8.57165 3.15108 7.91699L3.15183 7.91624L4.36938 6.69869C4.57766 6.49041 4.91535 6.49041 5.12363 6.69869ZM6.3226 2.63835C6.20838 2.36684 5.89569 2.23934 5.62419 2.35356C5.35268 2.46777 5.22518 2.78047 5.3394 3.05197L9.67653 13.3615C9.79075 13.6331 10.1034 13.7606 10.3749 13.6463C10.6464 13.5321 10.774 13.2194 10.6597 12.9479L6.3226 2.63835Z" fill="white" stroke="white" stroke-width="0.3" stroke-linecap="round" stroke-linejoin="round"/>
</svg>
