<svg width="14" height="14" viewBox="0 0 14 14" fill="none" xmlns="http://www.w3.org/2000/svg">
<path fill-rule="evenodd" clip-rule="evenodd" d="M12.2096 7.22232H8.25118L8.25155 5.88902H10.5119C9.83994 4.73238 8.72793 3.94617 7.46738 3.73644C6.20668 3.52673 4.92317 3.91438 3.95269 4.79793C2.98236 5.68133 2.42185 6.97269 2.41807 8.3335H1.16797C1.17232 6.58095 1.89473 4.91836 3.14539 3.782C4.39578 2.64565 6.04957 2.14917 7.67226 2.42322C9.2948 2.69714 10.7241 3.71398 11.5845 5.20669V2.3335H12.8346V6.55563C12.8346 6.7325 12.7688 6.90208 12.6515 7.02701C12.5344 7.15211 12.3754 7.22232 12.2096 7.22232ZM7.0013 11.6668C7.71723 11.6668 8.2976 11.0699 8.2976 10.3335C8.2976 9.59712 7.71723 9.00016 7.0013 9.00016C6.28538 9.00016 5.70501 9.59712 5.70501 10.3335C5.70501 11.0699 6.28538 11.6668 7.0013 11.6668Z" fill="#BCBCBC"/>
</svg>
