<svg width="16" height="16" viewBox="0 0 16 16" fill="none" xmlns="http://www.w3.org/2000/svg">
<path fill-rule="evenodd" clip-rule="evenodd" d="M8.00065 1C7.69123 1 7.39449 1.12292 7.17569 1.34171C6.9569 1.5605 6.83398 1.85725 6.83398 2.16667V13.8333C6.83398 14.1428 6.9569 14.4395 7.17569 14.6583C7.39449 14.8771 7.69123 15 8.00065 15C8.31007 15 8.60682 14.8771 8.82561 14.6583C9.0444 14.4395 9.16732 14.1428 9.16732 13.8333V2.16667C9.16732 1.85725 9.0444 1.5605 8.82561 1.34171C8.60682 1.12292 8.31007 1 8.00065 1ZM2.16667 6.83337C1.85725 6.83337 1.5605 6.95629 1.34171 7.17508C1.12292 7.39388 1 7.69062 1 8.00004V13.8334C1 14.1428 1.12292 14.4395 1.34171 14.6583C1.5605 14.8771 1.85725 15 2.16667 15C2.47609 15 2.77283 14.8771 2.99162 14.6583C3.21042 14.4395 3.33333 14.1428 3.33333 13.8334V8.00004C3.33333 7.69062 3.21042 7.39388 2.99162 7.17508C2.77283 6.95629 2.47609 6.83337 2.16667 6.83337ZM13.0077 7.17508C13.2265 6.95629 13.5233 6.83337 13.8327 6.83337C14.1421 6.83337 14.4388 6.95629 14.6576 7.17508C14.8764 7.39388 14.9993 7.69062 14.9993 8.00004V13.8334C14.9993 14.1428 14.8764 14.4395 14.6576 14.6583C14.4388 14.8771 14.1421 15 13.8327 15C13.5233 15 13.2265 14.8771 13.0077 14.6583C12.7889 14.4395 12.666 14.1428 12.666 13.8334V8.00004C12.666 7.69062 12.7889 7.39388 13.0077 7.17508Z" fill="white"/>
</svg>
