<svg width="14" height="14" viewBox="0 0 14 14" fill="none" xmlns="http://www.w3.org/2000/svg">
<path d="M7 0.875C5.78859 0.875 4.60439 1.23422 3.59713 1.90725C2.58988 2.58027 1.80483 3.53687 1.34124 4.65606C0.877654 5.77526 0.756358 7.00679 0.992693 8.19493C1.22903 9.38306 1.81238 10.4744 2.66897 11.331C3.52557 12.1876 4.61694 12.771 5.80507 13.0073C6.99321 13.2436 8.22474 13.1223 9.34394 12.6588C10.4631 12.1952 11.4197 11.4101 12.0928 10.4029C12.7658 9.39561 13.125 8.21141 13.125 7C13.125 6.19565 12.9666 5.39918 12.6588 4.65606C12.351 3.91294 11.8998 3.23773 11.331 2.66897C10.7623 2.10021 10.0871 1.64905 9.34394 1.34124C8.60082 1.03343 7.80435 0.875 7 0.875ZM7 11.9C6.03087 11.9 5.08351 11.6126 4.27771 11.0742C3.47191 10.5358 2.84386 9.7705 2.47299 8.87515C2.10212 7.97979 2.00509 6.99456 2.19415 6.04406C2.38322 5.09355 2.8499 4.22045 3.53518 3.53518C4.22046 2.8499 5.09355 2.38322 6.04406 2.19415C6.99457 2.00508 7.97979 2.10212 8.87515 2.47299C9.77051 2.84386 10.5358 3.4719 11.0742 4.2777C11.6126 5.08351 11.9 6.03087 11.9 7C11.9 8.29956 11.3838 9.54589 10.4648 10.4648C9.5459 11.3837 8.29956 11.9 7 11.9Z" fill="#BCBCBC"/>
<rect x="4.375" y="6.34375" width="5.25" height="1.3125" rx="0.65625" fill="#BCBCBC"/>
</svg>
